PathFileType	4	(X/Y/Z)	Patient4_TMGait_0pt6_02_right_16.trc.trc
DataRate	CameraRate	NumFrames	NumMarkers	Units	OrigDataRate	OrigDataStartFrame	OrigNumFrames
82.352941176471	82.352941176471	4	33	mm	82.352941176471	36	       141
Frame#	Time	Sacral			L.Shoulder			Chest			R.Shoulder			Neck			R.ASIS			L.ASIS			R.Thigh.Superior			R.Thigh.Lateral			R.Thigh.Inferior			R.Patella			L.Thigh.Superior			L.Thigh.Lateral			L.Thigh.Inferior			L.Patella			L.Shank.Superior			L.Shank.Lateral			L.Shank.Inferior			R.Shank.Superior			R.Shank.Lateral			R.Shank.Inferior			R.Heel			R.Midfoot.Superior			R.Midfoot.Lateral			R.Toe			L.Heel			L.Midfoot.Lateral			L.Midfoot.Superior			L.Toe			L.Elbow			L.Wrist			R.Elbow			R.Wrist			
		X1	Y1	Z1	X2	Y2	Z2	X3	Y3	Z3	X4	Y4	Z4	X5	Y5	Z5	X6	Y6	Z6	X7	Y7	Z7	X8	Y8	Z8	X9	Y9	Z9	X10	Y10	Z10	X11	Y11	Z11	X12	Y12	Z12	X13	Y13	Z13	X14	Y14	Z14	X15	Y15	Z15	X16	Y16	Z16	X17	Y17	Z17	X18	Y18	Z18	X19	Y19	Z19	X20	Y20	Z20	X21	Y21	Z21	X22	Y22	Z22	X23	Y23	Z23	X24	Y24	Z24	X25	Y25	Z25	X26	Y26	Z26	X27	Y27	Z27	X28	Y28	Z28	X29	Y29	Z29	X30	Y30	Z30	X31	Y31	Z31	X32	Y32	Z32	X33	Y33	Z33	

36	19.495000000000	821.872232416785	1003.924129047569	488.195061572788	999.595317509959	1428.585286518010	297.646212901189	1101.577155525877	1360.587255793637	458.889483630049	1018.171605575285	1437.594637605260	630.126043992687	995.035407020008	1491.237009866595	448.410248077742	1052.246925303487	938.977547775121	601.842920536959	1037.144707794980	960.283401294495	325.669335998251	1111.267687001479	750.124707223568	567.444215332052	1043.552956958743	634.639066127963	630.933799404510	1122.596952376743	589.717754544439	547.562538176786	1131.697557379968	501.227179060608	554.147435135348	1059.794103787200	733.676813404514	347.474263792766	961.986865178829	624.564838819961	286.939810704720	1045.874952468415	534.868329962570	340.167247132943	1032.985327865836	449.885297588755	338.587167276459	962.164662725926	395.844338722031	337.598908801784	819.076816724326	355.984150154809	295.339023282938	803.569997842266	230.011885635649	355.974133150561	1111.402586929190	411.334482030023	563.735231699775	1050.477364958563	302.614695244242	627.907054863342	1099.209757389965	210.948102622976	564.290354836028	977.649405137179	42.180491228186	537.905199722051	1148.681818597348	98.180689889664	566.628391790968	1063.737879816558	37.056353611082	609.556624864841	1270.887016217997	47.324748082861	589.982469374324	612.556473639337	168.761518679711	402.174764326099	666.958913910224	118.866250930631	323.330997450686	771.580130658311	128.108245102038	340.976113377916	848.117235676716	30.568341767524	318.506921440274	1010.742509675547	1078.116460289780	173.725737376327	1236.355225938203	948.755995846211	168.289026471429	930.992053467575	1100.534493493550	749.577379770471	959.582717977609	840.575021843538	745.925249521670	
37	19.507142857143	822.796451688062	1004.215931575282	491.398693907053	998.395188415964	1429.286270754609	299.463199158211	1101.937645261410	1361.336072416215	459.776403472266	1019.877011373338	1437.986246010745	631.782541632374	995.109445887307	1491.793118814279	450.411328214939	1053.810531078441	939.839148734539	603.155479875700	1037.497005266065	961.074418883878	327.083350422813	1110.797062280171	749.145016926668	569.413312230743	1041.931447048522	634.680241980172	632.678606025821	1120.126996924944	588.991417176027	548.858117135743	1128.330387386013	500.450108937982	555.123594549324	1066.035713040256	736.418835577657	349.186610237949	973.198427694628	624.591239384181	287.518254746910	1060.277670568499	537.067373172306	340.679788505770	1048.851101576129	450.782221268882	338.377698518640	976.094794139452	396.772734957600	337.582810026995	831.492111848670	362.120972142237	295.415845408094	811.522621872597	236.725544302353	355.808782954553	1107.286151094725	410.728532588801	564.597057768440	1045.754287757541	302.347739293830	628.585068883239	1093.346854716461	210.486915402767	564.583307370770	970.472393136441	42.180333986355	538.051679426330	1141.554140225408	98.121714857164	566.803344595692	1056.531016642939	37.019879346410	609.720744957466	1263.722237495962	47.121943308229	590.189483394688	618.435904355422	185.450353786207	401.867371959061	670.074779678811	132.233050976624	323.073645182219	775.337473014990	135.026491100455	340.847617880875	845.256866801120	30.290807153425	318.317783064964	1006.702402932170	1077.602092031160	177.972586866395	1226.102932028057	936.837171377126	171.758618858158	941.459055967317	1098.885358658207	753.232542597920	982.933348657285	840.559043237562	746.971991375934	
38	19.519285714286	823.577305312274	1004.414037027308	494.496383792300	996.912076974556	1429.796791483753	301.092162205605	1102.149528057687	1361.953603025965	460.412296840694	1021.524700570363	1438.231993843489	633.263347058653	995.048177200369	1492.209980325905	452.214545208104	1055.175816879528	940.570917252431	604.337340595614	1037.170913574644	961.326757815642	328.584074102170	1110.133678171797	748.100752852371	571.490039684478	1040.049756189139	634.598538496377	634.398261959897	1117.488519013316	588.219072095290	550.217398805867	1124.814306687886	499.652238013467	556.143671021493	1072.093870426045	739.425247020573	350.941307511430	984.305911811376	625.145679100955	287.985289680377	1074.349056726511	539.920963178143	341.268200080693	1064.582838820860	452.457688751683	338.325153991438	990.246839417341	398.286633464045	337.582959984435	844.423549607614	368.287277301295	295.482911810704	820.495364965177	243.490886846171	355.682848313565	1103.043336620844	410.078393768616	565.432778564598	1040.898817982306	302.011525344657	629.198509320167	1087.402065555927	209.990493132717	564.842665936428	963.211504079111	42.179773022358	538.183531783378	1134.375920577116	97.993845684964	566.935894766132	1049.242258217919	36.967707482183	609.866384515024	1256.498892991325	46.793999252861	590.361730222328	625.887299909401	201.056264389954	401.619682878827	675.011465666371	145.115540473600	322.803375993071	780.630914219213	142.167167484743	340.734263679845	844.498074119357	30.704952281356	317.947993669957	1002.447097623785	1076.887268797151	182.023316964236	1214.877571892427	924.884389349157	175.241091096294	952.154514018274	1097.395387075537	756.803159652333	1006.965467744282	841.472916594935	747.695398074511	
39	19.531428571429	824.203493669798	1004.569524471199	497.439675153086	995.228011078233	1430.144754528688	302.522341302804	1102.233924664934	1362.459782624734	460.814258323459	1023.116274464432	1438.398812069437	634.548110753188	994.898131980773	1492.527427388585	453.786738130533	1056.327056446410	941.198465188712	605.428499301714	1036.195130018531	961.093633617057	330.182278234959	1109.341349450817	747.083131847995	573.579580375145	1038.019057486839	634.440444047861	636.036472389990	1114.778230138176	587.444890217687	551.580705277631	1121.231455549626	498.859064897320	557.160850172281	1077.859275464658	742.723794420949	352.755230471166	995.117868405277	626.295498647276	288.367586552643	1087.881309368220	543.457020495663	341.916397617063	1079.973962177044	454.945413333390	338.373055058480	1004.438215535752	400.410159492802	337.572325394366	857.664100097368	374.318993338382	295.557222891341	830.471984459262	250.048361557787	355.569371456454	1098.752585314569	409.409800080681	566.211296037109	1035.977890115120	301.652157806251	629.750619500144	1081.417179917320	209.482536353482	565.061942650993	955.889813235951	42.186976846690	538.312284602569	1127.163557606728	97.826565077171	567.036271549256	1041.897806795993	36.915268101466	610.002844682404	1249.234421732632	46.387493398284	590.508480194700	634.835615354880	214.862325085860	401.439121364410	681.843433274905	156.894533749280	322.509636048592	787.601677653385	149.190390027967	340.581220719971	846.325455014689	31.887335170059	317.343154879217	997.963445478645	1076.007738937037	185.884621978718	1202.642304207872	913.015154282183	178.712865289099	963.094828187538	1096.124599993496	760.213885923602	1031.565575983398	843.476425132079	748.012054023165	
